<?xml version="1.0" encoding="utf-8"?>
<!-- Generator: Adobe Illustrator 25.2.0, SVG Export Plug-In . SVG Version: 6.00 Build 0)  -->
<svg version="1.1" id="Layer_4" xmlns="http://www.w3.org/2000/svg" xmlns:xlink="http://www.w3.org/1999/xlink" x="0px" y="0px"
	 viewBox="0 0 104 44" style="enable-background:new 0 0 104 44;" xml:space="preserve">
<style type="text/css">
	.st0{fill:#FCFCFC;}
</style>
<g>
	<path class="st0" d="M0,0.5h3.8c2,0,3.5,0.4,4.4,1.3C9.1,2.7,9.8,4.1,10.3,6c0.5,1.9,0.8,4.2,0.8,6.9c0,3-0.3,5.5-1,7.4
		s-1.6,3.3-2.8,4.1c-0.7,0.4-1.9,0.7-3.7,0.7v18.1H0V0.5z M3.6,17.2h1.1c0.9,0,1.5-0.1,1.9-0.4c0.3-0.3,0.6-0.8,0.8-1.4
		c0.2-0.7,0.3-1.5,0.3-2.4c0-1.6-0.3-2.9-0.8-3.6C6.4,8.7,5.7,8.4,4.6,8.4h-1V17.2z"/>
	<path class="st0" d="M21.2,10.8c1.3,0,2.5,0.7,3.7,2.2c1.1,1.5,2,3.5,2.7,6.1c0.6,2.6,1,5.3,1,8.3c0,3-0.3,5.8-1,8.4
		s-1.5,4.6-2.6,6.1c-1.1,1.5-2.4,2.2-3.7,2.2c-2,0-3.7-1.6-5.1-4.8s-2.1-7.1-2.1-11.7c0-4.9,0.8-9,2.4-12.3
		C17.8,12.2,19.4,10.8,21.2,10.8z M21.3,18.3c-1.1,0-2,0.9-2.7,2.6c-0.7,1.7-1.1,3.9-1.1,6.6c0,2.7,0.4,5,1.1,6.7
		c0.7,1.7,1.6,2.6,2.7,2.6c1.1,0,2-0.9,2.7-2.6c0.7-1.7,1.1-3.9,1.1-6.6s-0.4-4.9-1.1-6.6C23.3,19.1,22.4,18.3,21.3,18.3z"/>
	<path class="st0" d="M31.1,11.6h3v4c0.3-1.6,0.7-2.8,1.3-3.6c0.5-0.8,1.1-1.2,1.8-1.2c0.4,0,0.9,0.3,1.4,0.8l-1.1,6.8
		c-0.4-0.5-0.7-0.7-1-0.7c-0.5,0-1,0.8-1.4,2.3c-0.4,1.5-0.6,4.5-0.6,8.9l0,1.5v12.8h-3.4V11.6z"/>
	<path class="st0" d="M41.2,0h3.5v11.6h2.1v6.8h-2.1v24.7h-3.5V18.4h-1.8v-6.8h1.8V0z"/>
	<path class="st0" d="M49,11.6h3.5v3.6c0.6-1.5,1.3-2.6,2-3.3s1.5-1.1,2.4-1.1c0.9,0,1.6,0.5,2.3,1.5c0.7,1,1.3,2.4,1.7,4.2
		c0.6-1.9,1.2-3.3,2-4.2c0.8-1,1.7-1.5,2.6-1.5c1,0,1.8,0.5,2.6,1.6c0.7,1,1.3,2.4,1.6,4.1s0.5,4.4,0.5,8.2v18.5h-3.5v-16
		c0-3.6-0.2-6-0.6-7.3s-1-1.9-1.8-1.9c-0.6,0-1.1,0.4-1.6,1.2c-0.5,0.8-0.8,1.8-1,3.2c-0.2,1.4-0.3,3.6-0.3,6.6v14.2h-3.5V27.9
		c0-2.8-0.1-4.9-0.3-6.1c-0.2-1.3-0.5-2.2-0.8-2.8C56.4,18.3,56,18,55.5,18c-0.6,0-1.1,0.4-1.6,1.2c-0.5,0.8-0.8,1.9-1.1,3.3
		c-0.2,1.4-0.4,3.6-0.4,6.7v14H49V11.6z"/>
	<path class="st0" d="M84.2,11.6h3.5v31.6h-3.5v-3.3c-0.7,1.5-1.4,2.5-2,3.2c-0.7,0.6-1.4,1-2.2,1c-1.8,0-3.3-1.6-4.6-4.7
		c-1.3-3.2-2-7.1-2-11.8c0-4.9,0.6-8.9,1.9-12c1.3-3.1,2.8-4.7,4.6-4.7c0.8,0,1.6,0.4,2.3,1.1c0.7,0.7,1.4,1.8,2,3.2V11.6z
		 M80.6,18.1c-1.1,0-2,0.9-2.7,2.6s-1.1,3.9-1.1,6.7c0,2.7,0.4,5,1.1,6.7c0.7,1.8,1.6,2.6,2.7,2.6c1.1,0,2-0.9,2.7-2.6
		c0.7-1.7,1.1-4,1.1-6.8c0-2.7-0.4-5-1.1-6.7C82.6,19,81.7,18.1,80.6,18.1z"/>
	<path class="st0" d="M91.7,11.6h3.5v3.2c0.8-1.5,1.5-2.6,2.1-3.2c0.6-0.6,1.3-0.9,2-0.9c1.4,0,2.5,1.1,3.5,3.3
		c0.8,1.9,1.2,4.6,1.2,8.2v20.9h-3.4V29.4c0-3.8-0.1-6.3-0.2-7.5c-0.1-1.2-0.4-2.2-0.8-2.8c-0.4-0.6-0.8-1-1.4-1
		c-0.7,0-1.3,0.5-1.8,1.6c-0.5,1.1-0.9,2.6-1,4.4c-0.1,1-0.2,3.1-0.2,6.4v12.7h-3.5V11.6z"/>
</g>
</svg>
